<?xml version="1.0" encoding="utf-8"?>
<!-- Generator: Adobe Illustrator 23.0.3, SVG Export Plug-In . SVG Version: 6.00 Build 0)  -->
<svg version="1.1" id="Layer_1" xmlns="http://www.w3.org/2000/svg" xmlns:xlink="http://www.w3.org/1999/xlink" x="0px" y="0px"
	 viewBox="0 0 120.8779449 91.2974319" style="enable-background:new 0 0 120.8779449 91.2974319;" xml:space="preserve">
<style type="text/css">
	.st0{fill:#111183;}
	.st1{fill:#FF4D00;}
</style>
<g>
	<path class="st0" d="M6.2304688,78.7022171c-0.815918,0-1.5400391-0.0400391-2.171875-0.1201172
		c-0.6323242-0.0800781-1.2084961-0.2075195-1.7280273-0.3837891c-0.5200195-0.1762695-1.0439453-0.3999023-1.5722656-0.6723633
		v-3.144043c0.6723633,0.5444336,1.4599609,0.972168,2.3642578,1.2841797
		c0.9038086,0.3120117,1.8276367,0.4682617,2.7719727,0.4682617c0.8637695,0,1.515625-0.171875,1.9560547-0.5161133
		c0.4399414-0.34375,0.659668-0.84375,0.659668-1.5c0-0.4960938-0.1796875-0.8959961-0.5400391-1.2001953
		c-0.3598633-0.3037109-0.8359375-0.5678711-1.4277344-0.7919922c-0.5922852-0.2236328-1.2402344-0.4560547-1.9438477-0.6958008
		c-0.4960938-0.1757812-0.9804688-0.3720703-1.4521484-0.5878906C2.6743164,70.6260452,2.25,70.3501663,1.8745117,70.0142288
		c-0.3759766-0.3359375-0.6762695-0.7558594-0.8999023-1.2602539C0.75,68.2500687,0.6386719,67.6304398,0.6386719,66.8941116
		c0-0.5917969,0.1113281-1.1757812,0.3359375-1.7519531c0.2236328-0.5761719,0.5673828-1.0917969,1.0317383-1.5478554
		c0.4638672-0.4560547,1.0639648-0.8198242,1.800293-1.0922852c0.7353516-0.2719727,1.6157227-0.4077148,2.6396484-0.4077148
		c0.6401367,0,1.2041016,0.0400391,1.6923828,0.1196289c0.487793,0.0805664,0.9555664,0.2006836,1.4038086,0.3603516
		c0.4477539,0.1601562,0.9121094,0.3598633,1.3920898,0.5996094v3.1440468
		c-0.3842773-0.2714844-0.7919922-0.5317383-1.2241211-0.7797852s-0.8920898-0.4516602-1.3798828-0.6118164
		c-0.4882812-0.1601562-1.012207-0.2480469-1.5722656-0.2641602c-0.5756836-0.015625-1.0717773,0.0478516-1.487793,0.1918945
		c-0.4165039,0.144043-0.7363281,0.3598633-0.9599609,0.6479492c-0.2241211,0.2880859-0.3359375,0.6323242-0.3359375,1.0322266
		c0,0.4960938,0.1357422,0.8920898,0.4077148,1.1879883c0.2719727,0.2963867,0.6557617,0.5400391,1.1523438,0.7319336
		c0.4956055,0.1918945,1.0634766,0.3920898,1.7036133,0.6000977c0.6240234,0.1918945,1.2119141,0.4042969,1.7641602,0.6357422
		c0.5517578,0.2324219,1.0400391,0.5244141,1.4638672,0.8759766c0.4238281,0.3520508,0.7597656,0.7841797,1.0083008,1.2963867
		c0.2475586,0.512207,0.371582,1.1362305,0.371582,1.871582c0,0.8964844-0.2080078,1.7202148-0.6235352,2.472168
		c-0.4165039,0.7524414-1.0361328,1.355957-1.8603516,1.8120117S7.4941406,78.7022171,6.2304688,78.7022171z"/>
	<path class="st0" d="M25.5019531,70.3501663v8.0639648h-3.0239258v-7.5361328c0-0.3037109-0.0400391-0.5957031-0.1201172-0.8759766
		c-0.0800781-0.2797852-0.2158203-0.527832-0.4077148-0.7436523c-0.1918945-0.2163086-0.4560547-0.3842773-0.7919922-0.5043945
		c-0.3359375-0.1196289-0.7680664-0.1796875-1.2958984-0.1796875c-0.4003906,0-0.7885742,0.0400391-1.1640625,0.1196289
		c-0.3764648,0.0805664-0.7080078,0.1845703-0.9960938,0.3120117v9.4082031h-3.0478516V67.3262405
		c0.3359375-0.159668,0.7353516-0.3198242,1.199707-0.4799805c0.4638672-0.159668,0.9677734-0.300293,1.512207-0.4199219
		c0.543457-0.1201172,1.0917969-0.2163086,1.644043-0.2880859c0.5517578-0.0722656,1.0756836-0.1079102,1.5717773-0.1079102
		c1.1196289,0,2.0400391,0.1479492,2.7602539,0.4438477c0.7197266,0.2963867,1.2597656,0.7602539,1.6196289,1.3920898
		C25.3222656,68.4986038,25.5019531,69.3262405,25.5019531,70.3501663z M22.2382812,68.0459671
		c0.5117188-0.4316406,1.0957031-0.7954102,1.7519531-1.0917969c0.6557617-0.2958984,1.34375-0.5239258,2.0639648-0.684082
		c0.7197266-0.159668,1.4077148-0.2397461,2.0639648-0.2397461c1.1196289,0,2.0400391,0.1479492,2.7597656,0.4438477
		c0.7202148,0.2963867,1.2602539,0.7602539,1.6201172,1.3920898c0.3598633,0.6323242,0.5400391,1.4599609,0.5400391,2.4838867
		v8.0639648h-3.0239258v-7.5361328c0-0.3037109-0.0400391-0.5957031-0.1201172-0.8759766
		c-0.0800781-0.2797852-0.2158203-0.527832-0.4077148-0.7436523c-0.1923828-0.2163086-0.4560547-0.3842773-0.7919922-0.5043945
		c-0.3364258-0.1196289-0.7680664-0.1796875-1.2963867-0.1796875c-0.3999023,0-0.7880859,0.0561523-1.1640625,0.1679688
		s-0.7080078,0.2797852-0.9956055,0.5039062L22.2382812,68.0459671z"/>
	<path class="st0" d="M40.9101562,78.7739944c-0.671875,0-1.3120117-0.0639648-1.9199219-0.1918945
		c-0.6083984-0.128418-1.1518555-0.3398438-1.6318359-0.6357422s-0.8603516-0.7041016-1.1401367-1.2241211
		c-0.2802734-0.5200195-0.4199219-1.171875-0.4199219-1.9560547c0-0.815918,0.1679688-1.5078125,0.5039062-2.0761719
		c0.3359375-0.5678711,0.828125-0.9995117,1.4760742-1.2958984c0.6479492-0.2958984,1.4438477-0.4438477,2.3881836-0.4438477
		c0.5756836,0,1.1118164,0.0517578,1.6079102,0.1557617c0.4956055,0.1044922,0.9438477,0.2441406,1.34375,0.4199219
		c0.3999023,0.1762695,0.7280273,0.3686523,0.9838867,0.5761719l0.2163086,1.7041016
		c-0.3359375-0.2241211-0.7641602-0.4038086-1.2841797-0.5400391c-0.5200195-0.1357422-1.0839844-0.2041016-1.6918945-0.2041016
		c-0.8481445,0-1.4799805,0.1362305-1.8959961,0.4082031c-0.4165039,0.2719727-0.6240234,0.6958008-0.6240234,1.2719727
		c0,0.3999023,0.1118164,0.7319336,0.3359375,0.9960938c0.2241211,0.2636719,0.5117188,0.4638672,0.8642578,0.5996094
		c0.3515625,0.1362305,0.7197266,0.2041016,1.1040039,0.2041016c0.8793945,0,1.515625-0.0600586,1.9077148-0.1796875
		c0.3920898-0.1201172,0.5878906-0.3798828,0.5878906-0.7802734V70.806221c0-0.7836914-0.2480469-1.355957-0.7436523-1.7163086
		c-0.4960938-0.3598633-1.1923828-0.5395508-2.0883789-0.5395508c-0.6879883,0-1.3916016,0.1162109-2.1118164,0.3476562
		c-0.7197266,0.2324219-1.3041992,0.5322266-1.7519531,0.8999023v-2.7597656
		c0.4321289-0.2719727,1.0800781-0.5117188,1.9438477-0.7202148c0.8642578-0.2075195,1.7919922-0.3120117,2.7841797-0.3120117
		c0.4160156,0,0.855957,0.0405273,1.3198242,0.1201172c0.4638672,0.0805664,0.9082031,0.2080078,1.3320312,0.3842773
		s0.8120117,0.4199219,1.1640625,0.7319336c0.3515625,0.3120117,0.6318359,0.7041016,0.8398438,1.1757812
		c0.2080078,0.472168,0.3120117,1.0439453,0.3120117,1.7163086v5.7358398c0,0.7519531-0.2397461,1.340332-0.7197266,1.7641602
		s-1.144043,0.7197266-1.9921875,0.8876953S42.0625,78.7739944,40.9101562,78.7739944z"/>
	<path class="st0" d="M49.9819336,78.4141312V67.4942093c0.2236328-0.144043,0.6196289-0.3359375,1.1879883-0.5761719
		c0.5673828-0.2397461,1.2275391-0.4516602,1.9799805-0.6357422c0.7519531-0.184082,1.5117188-0.2763672,2.2797852-0.2763672
		c0.5761719,0,1.0356445,0.0444336,1.3798828,0.1323242s0.6123047,0.1958008,0.8041992,0.3237305v2.3041992
		c-0.3203125-0.0478516-0.684082-0.0878906-1.0917969-0.1201172c-0.4082031-0.0317383-0.824707-0.0439453-1.2480469-0.0361328
		c-0.4243164,0.0083008-0.8325195,0.0283203-1.2241211,0.0600586c-0.3920898,0.0322266-0.7319336,0.0722656-1.0200195,0.1201172
		v9.6240234H49.9819336z"/>
	<path class="st0" d="M64.5258789,78.7979202c-1.2480469,0-2.2001953-0.3081055-2.855957-0.9238281
		c-0.65625-0.6157227-0.9838867-1.5078125-0.9838867-2.6757812v-6.4799805h-1.8720703v-2.4003906h1.8720703v-3.3359413h3.144043
		v3.3359413h2.8076172v2.4003906h-2.8076172v6c0,0.4960938,0.0957031,0.8637695,0.2875977,1.1040039
		c0.1923828,0.2397461,0.5283203,0.3598633,1.0083008,0.3598633c0.2558594,0,0.5239258-0.0439453,0.8037109-0.1318359
		s0.5161133-0.1958008,0.7080078-0.3242188v2.6401367c-0.3203125,0.159668-0.6679688,0.2714844-1.0439453,0.3359375
		C65.2177734,78.7656937,64.8618164,78.7979202,64.5258789,78.7979202z"/>
	<path class="st1" d="M69.5654297,78.4141312V62.4063148h6.3603516c1.2319336,0,2.2636719,0.1640625,3.0957031,0.4916992
		c0.8320312,0.328125,1.4643555,0.815918,1.8959961,1.4643593c0.4321289,0.6479492,0.6479492,1.4599609,0.6479492,2.4355469
		c0,0.7045898-0.1557617,1.2802734-0.4677734,1.7280273c-0.3120117,0.4482422-0.6879883,0.8041992-1.1279297,1.0683594
		c-0.4404297,0.2636719-0.8520508,0.4916992-1.2363281,0.6835938l-0.3598633-0.671875
		c0.7358398,0.0644531,1.4121094,0.2602539,2.0283203,0.5878906c0.6157227,0.328125,1.1074219,0.7802734,1.4755859,1.3564453
		c0.3681641,0.5756836,0.5522461,1.2797852,0.5522461,2.1118164c0,1.1040039-0.2602539,2.0083008-0.7802734,2.7119141
		c-0.5200195,0.7041016-1.2236328,1.2202148-2.1118164,1.5478516c-0.8881836,0.328125-1.8920898,0.4921875-3.012207,0.4921875
		H69.5654297z M72.8295898,68.8862991h3.3598633c0.3359375,0,0.6640625-0.0517578,0.984375-0.15625
		c0.3198242-0.1040039,0.5795898-0.2880859,0.7797852-0.5517578c0.199707-0.2641602,0.2998047-0.6362305,0.2998047-1.1162109
		c0-0.7836914-0.2158203-1.3198242-0.6479492-1.6079102c-0.4316406-0.2880859-0.9838867-0.4321289-1.6557617-0.4321289h-3.1201172
		V68.8862991z M72.8295898,75.8223343h3.527832c0.4799805,0,0.9277344-0.0639648,1.3442383-0.1923828
		c0.4160156-0.1279297,0.7519531-0.3598633,1.0078125-0.6958008S79.09375,74.134346,79.09375,73.5420609
		c0-0.4638672-0.0805664-0.8359375-0.2402344-1.1157227c-0.1601562-0.2797852-0.3759766-0.4960938-0.6479492-0.6484375
		c-0.2719727-0.1518555-0.5722656-0.2553711-0.8999023-0.3120117c-0.328125-0.0556641-0.668457-0.0839844-1.0200195-0.0839844
		h-3.4560547V75.8223343z"/>
	<path class="st1" d="M89.7490234,78.7739944c-0.671875,0-1.3120117-0.0639648-1.9199219-0.1918945
		c-0.6083984-0.128418-1.1518555-0.3398438-1.6318359-0.6357422s-0.8603516-0.7041016-1.1401367-1.2241211
		c-0.2802734-0.5200195-0.4199219-1.171875-0.4199219-1.9560547c0-0.815918,0.1679688-1.5078125,0.5039062-2.0761719
		c0.3359375-0.5678711,0.828125-0.9995117,1.4760742-1.2958984c0.6479492-0.2958984,1.4438477-0.4438477,2.3881836-0.4438477
		c0.5756836,0,1.1118164,0.0517578,1.6079102,0.1557617c0.4956055,0.1044922,0.9438477,0.2441406,1.34375,0.4199219
		c0.3999023,0.1762695,0.7280273,0.3686523,0.9838867,0.5761719l0.2163086,1.7041016
		c-0.3359375-0.2241211-0.7641602-0.4038086-1.2841797-0.5400391c-0.5200195-0.1357422-1.0839844-0.2041016-1.6918945-0.2041016
		c-0.8481445,0-1.4799805,0.1362305-1.8959961,0.4082031c-0.4165039,0.2719727-0.6240234,0.6958008-0.6240234,1.2719727
		c0,0.3999023,0.1118164,0.7319336,0.3359375,0.9960938c0.2241211,0.2636719,0.5117188,0.4638672,0.8642578,0.5996094
		c0.3515625,0.1362305,0.7197266,0.2041016,1.1040039,0.2041016c0.8793945,0,1.515625-0.0600586,1.9077148-0.1796875
		c0.3920898-0.1201172,0.5878906-0.3798828,0.5878906-0.7802734V70.806221c0-0.7836914-0.2480469-1.355957-0.7436523-1.7163086
		c-0.4960938-0.3598633-1.1923828-0.5395508-2.0883789-0.5395508c-0.6879883,0-1.3916016,0.1162109-2.1118164,0.3476562
		c-0.7197266,0.2324219-1.3041992,0.5322266-1.7519531,0.8999023v-2.7597656
		c0.4321289-0.2719727,1.0800781-0.5117188,1.9438477-0.7202148c0.8642578-0.2075195,1.7919922-0.3120117,2.7841797-0.3120117
		c0.4160156,0,0.855957,0.0405273,1.3198242,0.1201172c0.4638672,0.0805664,0.9082031,0.2080078,1.3320312,0.3842773
		s0.8120117,0.4199219,1.1640625,0.7319336c0.3515625,0.3120117,0.6318359,0.7041016,0.8398438,1.1757812
		c0.2080078,0.472168,0.3120117,1.0439453,0.3120117,1.7163086v5.7358398c0,0.7519531-0.2397461,1.340332-0.7197266,1.7641602
		s-1.144043,0.7197266-1.9921875,0.8876953S90.9013672,78.7739944,89.7490234,78.7739944z"/>
	<path class="st1" d="M102.3730469,78.7739944c-0.8637695,0-1.6000977-0.0922852-2.2080078-0.2758789
		c-0.6083984-0.1835938-1.1918945-0.4038086-1.7519531-0.6601562v-2.7358398
		c0.3676758,0.2402344,0.7558594,0.4677734,1.1640625,0.684082c0.4082031,0.2158203,0.8476562,0.3881836,1.3198242,0.5161133
		c0.4716797,0.1279297,0.9799805,0.1918945,1.5239258,0.1918945c0.6401367,0,1.1162109-0.1240234,1.4282227-0.3720703
		s0.4677734-0.5478516,0.4677734-0.8999023c0-0.3359375-0.1196289-0.5961914-0.3598633-0.7802734
		c-0.2397461-0.1835938-0.5517578-0.3393555-0.9360352-0.4677734c-0.3837891-0.1279297-0.7919922-0.2558594-1.2241211-0.3842773
		c-0.3999023-0.0957031-0.8037109-0.2236328-1.2119141-0.3837891c-0.4077148-0.159668-0.7797852-0.3759766-1.1157227-0.6479492
		s-0.6044922-0.6201172-0.8041992-1.0439453c-0.2001953-0.4238281-0.2998047-0.9399414-0.2998047-1.5483398
		c0-0.7197266,0.144043-1.3276367,0.4316406-1.8237305c0.2880859-0.4956055,0.6640625-0.8959961,1.128418-1.2001953
		c0.4638672-0.3037109,0.9755859-0.5239258,1.5356445-0.659668s1.1040039-0.2041016,1.6323242-0.2041016
		c0.9116211,0.0322266,1.6474609,0.1401367,2.2080078,0.3237305c0.5595703,0.1845703,1.0878906,0.4204102,1.5839844,0.7080078
		l0.0239258,2.472168c-0.5605469-0.3037109-1.1040039-0.5795898-1.6318359-0.828125
		c-0.5283203-0.2475586-1.128418-0.3720703-1.800293-0.3720703c-0.6240234,0-1.1079102,0.1083984-1.4521484,0.3242188
		s-0.515625,0.5161133-0.515625,0.8999023c0,0.3359375,0.1035156,0.6083984,0.3120117,0.815918
		c0.2075195,0.2084961,0.4799805,0.3686523,0.815918,0.4799805c0.3359375,0.1123047,0.7036133,0.2246094,1.1040039,0.3364258
		c0.3994141,0.1118164,0.815918,0.2358398,1.2480469,0.371582c0.4316406,0.1362305,0.831543,0.3325195,1.199707,0.5883789
		s0.6679688,0.5961914,0.9003906,1.0200195c0.2314453,0.4238281,0.3476562,0.987793,0.3476562,1.6918945
		c-0.0161133,0.9282227-0.2636719,1.6762695-0.7441406,2.2441406c-0.4799805,0.5678711-1.1079102,0.9799805-1.8837891,1.2358398
		C104.0327148,78.6460648,103.2211914,78.7739944,102.3730469,78.7739944z"/>
	<path class="st1" d="M115.5249023,78.7739944c-1.199707,0-2.2480469-0.2441406-3.144043-0.7319336
		s-1.5917969-1.2036133-2.0878906-2.1479492c-0.4960938-0.9438477-0.7436523-2.0795898-0.7436523-3.4082031
		c0-2.1118164,0.5073242-3.7236328,1.5239258-4.8359375c1.015625-1.1118164,2.4438477-1.6679688,4.2836914-1.6679688
		c1.328125,0,2.3959961,0.2880859,3.2041016,0.8642578c0.8076172,0.5756836,1.3999023,1.3959961,1.7758789,2.4599609
		s0.5561523,2.3320312,0.5400391,3.8037109h-9.3598633l-0.2402344-2.0639648h7.1762695l-0.5761719,0.8642578
		c-0.0322266-1.2636719-0.2519531-2.171875-0.659668-2.7241211c-0.4082031-0.5517578-1.0605469-0.828125-1.9560547-0.828125
		c-0.5444336,0-1.0200195,0.1245117-1.4282227,0.3720703c-0.4077148,0.2485352-0.7197266,0.6601562-0.9360352,1.2358398
		c-0.2158203,0.5761719-0.3237305,1.3681641-0.3237305,2.3764648c0,1.2475586,0.2958984,2.2041016,0.8876953,2.8676758
		c0.5917969,0.6640625,1.4960938,0.9960938,2.7119141,0.9960938c0.4960938,0,0.972168-0.0517578,1.4282227-0.1557617
		s0.8798828-0.2280273,1.2719727-0.3720703s0.7236328-0.2797852,0.9960938-0.4082031v2.6879883
		c-0.5600586,0.2402344-1.1962891,0.4360352-1.9082031,0.5878906S116.4370117,78.7739944,115.5249023,78.7739944z"/>
	<path class="st0" d="M0.5976562,89.0977249v2.1166992H0v-5.5361328h1.9667969c0.6201172,0,1.0942383,0.1464844,1.4238281,0.4399414
		c0.3291016,0.293457,0.4936523,0.7167969,0.4936523,1.2700195s-0.1645508,0.9765625-0.4936523,1.2695312
		c-0.3295898,0.293457-0.8037109,0.4399414-1.4238281,0.4399414H0.5976562z M0.5976562,88.5254593h1.2944336
		c0.3100586,0,0.5576172-0.0332031,0.7431641-0.0996094c0.1850586-0.0664062,0.324707-0.1567383,0.4189453-0.2700195
		s0.15625-0.2363281,0.1870117-0.3691406c0.0302734-0.1328125,0.0454102-0.265625,0.0454102-0.3984375
		s-0.0151367-0.265625-0.0454102-0.3984375c-0.0307617-0.1328125-0.0927734-0.2558594-0.1870117-0.3696289
		c-0.0942383-0.1132812-0.2338867-0.203125-0.4189453-0.2695312c-0.1855469-0.0664062-0.4331055-0.0996094-0.7431641-0.0996094
		H0.5976562V88.5254593z"/>
	<path class="st0" d="M8.0258789,91.2974319c-0.5473633,0-1.0053711-0.1064453-1.3735352-0.3193359
		c-0.3681641-0.2133789-0.6445312-0.5297852-0.8300781-0.9506836c-0.1850586-0.4204102-0.277832-0.9462891-0.277832-1.5766602
		c0-0.940918,0.2089844-1.6503906,0.6264648-2.1293945c0.4179688-0.4785156,1.0361328-0.7177734,1.8549805-0.7177734
		c0.5532227,0,1.0141602,0.1064453,1.3823242,0.3198242c0.3676758,0.2128906,0.6445312,0.5297852,0.8295898,0.9501953
		c0.1855469,0.4204102,0.2783203,0.9462891,0.2783203,1.5771484c0,0.9404297-0.2089844,1.6503906-0.6264648,2.1289062
		C9.4716797,91.0581741,8.8505859,91.2974319,8.0258789,91.2974319z M8.0258789,90.7329788
		c0.4370117,0,0.7939453-0.0800781,1.0708008-0.2407227c0.2768555-0.1601562,0.4799805-0.4091797,0.6103516-0.7470703
		c0.1298828-0.3374023,0.1948242-0.769043,0.1948242-1.2944336c0-0.5258789-0.0649414-0.9560547-0.1948242-1.2910156
		c-0.1303711-0.3344727-0.3334961-0.5834961-0.6103516-0.7470703c-0.2768555-0.1630859-0.6337891-0.2446289-1.0708008-0.2446289
		c-0.4311523,0-0.7856445,0.081543-1.0620117,0.2446289c-0.2768555,0.1635742-0.4804688,0.4125977-0.6103516,0.7470703
		c-0.1298828,0.3349609-0.1948242,0.7651367-0.1948242,1.2910156c0,0.5253906,0.0649414,0.9570312,0.1948242,1.2944336
		c0.1298828,0.3378906,0.3334961,0.5869141,0.6103516,0.7470703C7.2402344,90.6529007,7.5947266,90.7329788,8.0258789,90.7329788z"
		/>
	<path class="st0" d="M13.3959961,91.2144241l-1.7763672-5.5361328h0.6308594l1.5854492,5.0214844h-0.1826172l1.5102539-5.0214844
		h0.5976562l1.5605469,5.0961914h-0.2324219l1.5854492-5.0961914h0.6303711l-1.7841797,5.5361328h-0.605957l-1.5522461-4.9052734
		h0.1992188l-1.5522461,4.9052734H13.3959961z"/>
	<path class="st0" d="M20.8828125,91.2144241v-5.5361328h3.4941406v0.5644531h-2.8964844v1.9091797h2.5478516v0.5805664h-2.5478516
		v1.9174805h2.8964844v0.5644531H20.8828125z"/>
	<path class="st0" d="M26.3691406,91.2144241v-5.5361328h2.2739258c0.5424805,0,0.9506836,0.1357422,1.2246094,0.4067383
		s0.4106445,0.6723633,0.4106445,1.2036133c0,0.3208008-0.0664062,0.605957-0.1992188,0.8549805
		s-0.3183594,0.4453125-0.5561523,0.5888672c-0.237793,0.144043-0.5170898,0.2158203-0.8383789,0.2158203l0.2490234-0.1660156
		l1.59375,2.4321289h-0.7055664l-1.6430664-2.5400391l0.2983398,0.3071289h-1.5102539v2.2329102H26.3691406z M26.9667969,88.4175491
		h1.4023438c0.4594727,0,0.7929688-0.0927734,1.0004883-0.2783203c0.2075195-0.1850586,0.3110352-0.4550781,0.3110352-0.809082
		c0-0.3320312-0.0776367-0.5961914-0.2324219-0.7929688c-0.1547852-0.1962891-0.4453125-0.2944336-0.871582-0.2944336h-1.6098633
		V88.4175491z"/>
	<path class="st0" d="M32.2700195,91.2144241v-5.5361328h3.4941406v0.5644531h-2.8964844v1.9091797h2.5478516v0.5805664h-2.5478516
		v1.9174805h2.8964844v0.5644531H32.2700195z"/>
	<path class="st0" d="M37.7563477,91.2144241v-5.5361328h1.7348633c0.862793,0,1.5117188,0.230957,1.9462891,0.6928711
		c0.434082,0.4624023,0.6513672,1.152832,0.6513672,2.0712891s-0.2172852,1.6098633-0.6513672,2.074707
		c-0.4345703,0.4648438-1.0834961,0.6972656-1.9462891,0.6972656H37.7563477z M38.3540039,90.649971h1.0957031
		c0.7080078,0,1.2226562-0.1767578,1.543457-0.53125c0.3208008-0.3540039,0.4814453-0.9130859,0.4814453-1.6762695
		c0-0.7636719-0.1606445-1.3227539-0.4814453-1.6767578s-0.8354492-0.53125-1.543457-0.53125h-1.0957031V90.649971z"/>
	<path class="st0" d="M47.0273438,91.2144241v-5.5361328h1.8344727c0.480957,0,0.8544922,0.0678711,1.1201172,0.2036133
		c0.265625,0.1352539,0.4526367,0.3149414,0.5605469,0.5390625s0.1616211,0.472168,0.1616211,0.7431641
		c0,0.237793-0.0361328,0.4233398-0.1079102,0.5561523s-0.1591797,0.2421875-0.2612305,0.3276367
		c-0.1025391,0.0859375-0.2006836,0.1728516-0.2949219,0.2617188l-0.0664062-0.1079102
		c0.144043,0.0498047,0.2988281,0.1313477,0.4648438,0.2446289s0.3071289,0.2670898,0.4233398,0.4604492
		c0.1162109,0.1938477,0.1743164,0.4399414,0.1743164,0.7387695c0,0.3710938-0.0800781,0.6713867-0.2407227,0.9008789
		s-0.3916016,0.3984375-0.6928711,0.5063477c-0.3017578,0.1079102-0.6601562,0.1616211-1.0751953,0.1616211H47.0273438z
		 M47.625,88.0772171h1.3691406c0.1826172,0,0.3583984-0.0180664,0.5273438-0.0541992
		c0.168457-0.0356445,0.3081055-0.1162109,0.4189453-0.2407227s0.1660156-0.3164062,0.1660156-0.5766602
		c0-0.3764648-0.1049805-0.6293945-0.3154297-0.7597656c-0.2099609-0.1298828-0.5004883-0.1948242-0.871582-0.1948242H47.625
		V88.0772171z M47.625,90.6582718h1.4521484c0.2382812,0,0.4609375-0.0249023,0.668457-0.074707
		s0.3745117-0.1508789,0.5019531-0.3027344c0.1274414-0.1523438,0.190918-0.375,0.190918-0.668457
		c0-0.2211914-0.0415039-0.3969727-0.1245117-0.5268555s-0.1923828-0.2270508-0.3276367-0.2905273
		c-0.1357422-0.0634766-0.2851562-0.1049805-0.4482422-0.1245117c-0.1635742-0.0195312-0.3251953-0.0292969-0.4858398-0.0292969
		H47.625V90.6582718z"/>
	<path class="st0" d="M53.9912109,91.2144241v-2.5400391l-2.0668945-2.9960938h0.722168l1.7514648,2.5898438l-0.190918-0.0498047
		l1.7177734-2.5400391h0.722168l-2.1582031,3.137207l0.0996094-0.3813477v2.7802734H53.9912109z"/>
	<path class="st0" d="M61.2285156,91.2144241v-5.5361328h0.6474609l2.0498047,3.1455078l-0.4067383,0.0913086l2.1665039-3.2368164
		h0.6474609v5.5361328h-0.5976562v-4.9384766h0.265625l-2.2827148,3.2036133l-2.1079102-3.137207l0.2158203-0.3071289v5.1791992
		H61.2285156z"/>
	<path class="st0" d="M70.6816406,91.2974319c-0.5473633,0-1.0053711-0.1064453-1.3735352-0.3193359
		c-0.3681641-0.2133789-0.6445312-0.5297852-0.8300781-0.9506836c-0.1850586-0.4204102-0.277832-0.9462891-0.277832-1.5766602
		c0-0.940918,0.2089844-1.6503906,0.6264648-2.1293945c0.4179688-0.4785156,1.0361328-0.7177734,1.8549805-0.7177734
		c0.5532227,0,1.0141602,0.1064453,1.3823242,0.3198242c0.3676758,0.2128906,0.6445312,0.5297852,0.8295898,0.9501953
		c0.1855469,0.4204102,0.2783203,0.9462891,0.2783203,1.5771484c0,0.9404297-0.2089844,1.6503906-0.6264648,2.1289062
		C72.1274414,91.0581741,71.5063477,91.2974319,70.6816406,91.2974319z M70.6816406,90.7329788
		c0.4370117,0,0.7939453-0.0800781,1.0708008-0.2407227c0.2768555-0.1601562,0.4799805-0.4091797,0.6103516-0.7470703
		c0.1298828-0.3374023,0.1948242-0.769043,0.1948242-1.2944336c0-0.5258789-0.0649414-0.9560547-0.1948242-1.2910156
		c-0.1303711-0.3344727-0.3334961-0.5834961-0.6103516-0.7470703c-0.2768555-0.1630859-0.6337891-0.2446289-1.0708008-0.2446289
		c-0.4311523,0-0.7856445,0.081543-1.0620117,0.2446289c-0.2768555,0.1635742-0.4804688,0.4125977-0.6103516,0.7470703
		c-0.1298828,0.3349609-0.1948242,0.7651367-0.1948242,1.2910156c0,0.5253906,0.0649414,0.9570312,0.1948242,1.2944336
		c0.1298828,0.3378906,0.3334961,0.5869141,0.6103516,0.7470703C69.8959961,90.6529007,70.2504883,90.7329788,70.6816406,90.7329788
		z"/>
	<path class="st0" d="M75.0395508,91.2144241v-5.5361328h0.6806641l3.4526367,4.8720703l-0.1494141,0.2324219v-5.1044922h0.5976562
		v5.5361328h-0.6723633l-3.5854492-5.0546875l0.2739258-0.2573242v5.3120117H75.0395508z"/>
	<path class="st0" d="M81.6962891,91.2144241v-5.5361328h1.7348633c0.862793,0,1.5117188,0.230957,1.9462891,0.6928711
		c0.434082,0.4624023,0.6513672,1.152832,0.6513672,2.0712891s-0.2172852,1.6098633-0.6513672,2.074707
		c-0.4345703,0.4648438-1.0834961,0.6972656-1.9462891,0.6972656H81.6962891z M82.2939453,90.649971h1.0957031
		c0.7080078,0,1.2226562-0.1767578,1.543457-0.53125c0.3208008-0.3540039,0.4814453-0.9130859,0.4814453-1.6762695
		c0-0.7636719-0.1606445-1.3227539-0.4814453-1.6767578s-0.8354492-0.53125-1.543457-0.53125h-1.0957031V90.649971z"/>
	<path class="st0" d="M90.1699219,91.2974319c-0.5473633,0-1.0053711-0.1064453-1.3735352-0.3193359
		c-0.3681641-0.2133789-0.6445312-0.5297852-0.8300781-0.9506836c-0.1850586-0.4204102-0.277832-0.9462891-0.277832-1.5766602
		c0-0.940918,0.2089844-1.6503906,0.6264648-2.1293945c0.4179688-0.4785156,1.0361328-0.7177734,1.8549805-0.7177734
		c0.5532227,0,1.0141602,0.1064453,1.3823242,0.3198242c0.3676758,0.2128906,0.6445312,0.5297852,0.8295898,0.9501953
		c0.1855469,0.4204102,0.2783203,0.9462891,0.2783203,1.5771484c0,0.9404297-0.2089844,1.6503906-0.6264648,2.1289062
		C91.6157227,91.0581741,90.9946289,91.2974319,90.1699219,91.2974319z M90.1699219,90.7329788
		c0.4370117,0,0.7939453-0.0800781,1.0708008-0.2407227c0.2768555-0.1601562,0.4799805-0.4091797,0.6103516-0.7470703
		c0.1298828-0.3374023,0.1948242-0.769043,0.1948242-1.2944336c0-0.5258789-0.0649414-0.9560547-0.1948242-1.2910156
		c-0.1303711-0.3344727-0.3334961-0.5834961-0.6103516-0.7470703c-0.2768555-0.1630859-0.6337891-0.2446289-1.0708008-0.2446289
		c-0.4311523,0-0.7856445,0.081543-1.0620117,0.2446289c-0.2768555,0.1635742-0.4804688,0.4125977-0.6103516,0.7470703
		c-0.1298828,0.3349609-0.1948242,0.7651367-0.1948242,1.2910156c0,0.5253906,0.0649414,0.9570312,0.1948242,1.2944336
		c0.1298828,0.3378906,0.3334961,0.5869141,0.6103516,0.7470703C89.3842773,90.6529007,89.7387695,90.7329788,90.1699219,90.7329788
		z"/>
	<path class="st0" d="M94.527832,91.2144241v-5.5361328h0.6806641l3.4526367,4.8720703l-0.1494141,0.2324219v-5.1044922h0.5976562
		v5.5361328h-0.6723633l-3.5854492-5.0546875l0.2739258-0.2573242v5.3120117H94.527832z"/>
	<path class="st0" d="M103.4580078,91.2974319c-0.5473633,0-1.0053711-0.1064453-1.3735352-0.3193359
		c-0.3681641-0.2133789-0.6445312-0.5297852-0.8300781-0.9506836c-0.1850586-0.4204102-0.277832-0.9462891-0.277832-1.5766602
		c0-0.940918,0.2089844-1.6503906,0.6264648-2.1293945c0.4179688-0.4785156,1.0361328-0.7177734,1.8549805-0.7177734
		c0.5532227,0,1.0141602,0.1064453,1.3823242,0.3198242c0.3676758,0.2128906,0.6445312,0.5297852,0.8295898,0.9501953
		c0.1855469,0.4204102,0.2783203,0.9462891,0.2783203,1.5771484c0,0.9404297-0.2089844,1.6503906-0.6264648,2.1289062
		C104.9038086,91.0581741,104.2827148,91.2974319,103.4580078,91.2974319z M103.4580078,90.7329788
		c0.4370117,0,0.7939453-0.0800781,1.0708008-0.2407227c0.2768555-0.1601562,0.4799805-0.4091797,0.6103516-0.7470703
		c0.1298828-0.3374023,0.1948242-0.769043,0.1948242-1.2944336c0-0.5258789-0.0649414-0.9560547-0.1948242-1.2910156
		c-0.1303711-0.3344727-0.3334961-0.5834961-0.6103516-0.7470703c-0.2768555-0.1630859-0.6337891-0.2446289-1.0708008-0.2446289
		c-0.4311523,0-0.7856445,0.081543-1.0620117,0.2446289c-0.2768555,0.1635742-0.4804688,0.4125977-0.6103516,0.7470703
		c-0.1298828,0.3349609-0.1948242,0.7651367-0.1948242,1.2910156c0,0.5253906,0.0649414,0.9570312,0.1948242,1.2944336
		c0.1298828,0.3378906,0.3334961,0.5869141,0.6103516,0.7470703
		C102.6723633,90.6529007,103.0268555,90.7329788,103.4580078,90.7329788z"/>
	<path class="st0" d="M107.815918,91.2144241v-5.5361328h0.6474609l2.0498047,3.1455078l-0.4067383,0.0913086l2.1665039-3.2368164
		h0.6474609v5.5361328h-0.5976562v-4.9384766h0.265625l-2.2827148,3.2036133l-2.1079102-3.137207l0.2158203-0.3071289v5.1791992
		H107.815918z"/>
	<path class="st0" d="M117.269043,91.2974319c-0.5473633,0-1.0053711-0.1064453-1.3735352-0.3193359
		c-0.3681641-0.2133789-0.6445312-0.5297852-0.8300781-0.9506836c-0.1850586-0.4204102-0.277832-0.9462891-0.277832-1.5766602
		c0-0.940918,0.2089844-1.6503906,0.6264648-2.1293945c0.4179688-0.4785156,1.0361328-0.7177734,1.8549805-0.7177734
		c0.5532227,0,1.0141602,0.1064453,1.3823242,0.3198242c0.3676758,0.2128906,0.6445312,0.5297852,0.8295898,0.9501953
		c0.1855469,0.4204102,0.2783203,0.9462891,0.2783203,1.5771484c0,0.9404297-0.2089844,1.6503906-0.6264648,2.1289062
		C118.7148438,91.0581741,118.09375,91.2974319,117.269043,91.2974319z M117.269043,90.7329788
		c0.4370117,0,0.7939453-0.0800781,1.0708008-0.2407227c0.2768555-0.1601562,0.4799805-0.4091797,0.6103516-0.7470703
		c0.1298828-0.3374023,0.1948242-0.769043,0.1948242-1.2944336c0-0.5258789-0.0649414-0.9560547-0.1948242-1.2910156
		c-0.1303711-0.3344727-0.3334961-0.5834961-0.6103516-0.7470703c-0.2768555-0.1630859-0.6337891-0.2446289-1.0708008-0.2446289
		c-0.4311523,0-0.7856445,0.081543-1.0620117,0.2446289c-0.2768555,0.1635742-0.4804688,0.4125977-0.6103516,0.7470703
		c-0.1298828,0.3349609-0.1948242,0.7651367-0.1948242,1.2910156c0,0.5253906,0.0649414,0.9570312,0.1948242,1.2944336
		c0.1298828,0.3378906,0.3334961,0.5869141,0.6103516,0.7470703
		C116.4833984,90.6529007,116.8378906,90.7329788,117.269043,90.7329788z"/>
</g>
<g>
	<g>
		<g>
			<path class="st0" d="M54.6681023,37.768959l-3.8005791-2.1942711c-0.0748863-0.043232-0.1679344-0.043232-0.2428284,0
				l-3.8005562,2.1942711c-0.0326881,0.0188675-0.0599747,0.0448647-0.080349,0.0753479
				c0.0203743,0.0304794,0.0476608,0.056469,0.080349,0.0753441l3.8005562,2.1942635
				c0.0374527,0.0216217,0.0794373,0.0324287,0.1214256,0.0324287c0.0419846,0,0.08395-0.010807,0.1214027-0.0324287
				l3.8005791-2.1942635c0.0326843-0.0188751,0.0599594-0.0448647,0.0803146-0.0753441
				C54.7280617,37.8138046,54.7007866,37.7878265,54.6681023,37.768959z"/>
		</g>
		<g>
			<path class="st0" d="M74.0538254,37.768959l-3.8005753-2.1942711c-0.0748749-0.043232-0.167923-0.043232-0.2428207,0
				l-3.8005676,2.1942711c-0.0326843,0.0188675-0.0599594,0.0448647-0.0803375,0.0753479
				c0.0203781,0.0304794,0.0476532,0.056469,0.0803375,0.0753441l3.8005676,2.1942635
				c0.0374527,0.0216217,0.0794296,0.0324287,0.1214142,0.0324287c0.0419998,0,0.0839615-0.010807,0.1214066-0.0324287
				l3.8005753-2.1942635c0.032692-0.0188751,0.0599747-0.0448647,0.0803299-0.0753441
				C74.1138,37.8138046,74.0865173,37.7878265,74.0538254,37.768959z"/>
		</g>
		<g>
			<path class="st1" d="M64.3609619,37.768959l-3.8005753-2.1942711c-0.0748749-0.043232-0.167923-0.043232-0.2428207,0
				l-3.8005638,2.1942711c-0.0326881,0.0188675-0.0599632,0.0448647-0.080349,0.0753479
				c0.0203857,0.0304794,0.0476608,0.056469,0.080349,0.0753441l3.8005638,2.1942635
				c0.0374451,0.0216217,0.0794296,0.0324287,0.121418,0.0324287c0.0419846,0,0.08395-0.010807,0.1214027-0.0324287
				l3.8005753-2.1942635c0.032692-0.0188751,0.0599747-0.0448647,0.0803299-0.0753441
				C64.4209366,37.8138046,64.3936539,37.7878265,64.3609619,37.768959z"/>
		</g>
		<g>
			<path class="st0" d="M64.3609619,31.5526886l-3.8005753-2.1942711c-0.0748749-0.043232-0.167923-0.043232-0.2428207,0
				l-3.8005638,2.1942711c-0.0326881,0.0188751-0.0599632,0.0448647-0.080349,0.075346
				c0.0203857,0.0304813,0.0476608,0.0564804,0.080349,0.075346l3.8005638,2.1942596
				c0.0374451,0.0216217,0.0794296,0.0324326,0.121418,0.0324326c0.0419846,0,0.08395-0.0108109,0.1214027-0.0324326
				l3.8005753-2.1942596c0.032692-0.0188656,0.0599747-0.0448647,0.0803299-0.075346
				C64.4209366,31.5975323,64.3936539,31.5715637,64.3609619,31.5526886z"/>
		</g>
		<g>
			<path class="st0" d="M64.3609619,43.9977264l-3.8005753-2.1942711c-0.0748749-0.043232-0.167923-0.043232-0.2428207,0
				l-3.8005638,2.1942711c-0.0326881,0.0188751-0.0599632,0.0448647-0.080349,0.0753479
				c0.0203857,0.0304794,0.0476608,0.0564804,0.080349,0.0753441l3.8005638,2.1942635
				c0.0374451,0.0216293,0.0794296,0.0324287,0.121418,0.0324287c0.0419846,0,0.08395-0.0107994,0.1214027-0.0324287
				l3.8005753-2.1942635c0.032692-0.0188637,0.0599747-0.0448647,0.0803299-0.0753441
				C64.4209366,44.042572,64.3936539,44.0166016,64.3609619,43.9977264z"/>
		</g>
		<path class="st0" d="M83.8075104,20.5088234v-5.1176872c0-1.6019258-0.8618546-3.094656-2.2491684-3.8956652L62.6881752,0.6007874
			C61.9944229,0.2002318,61.2168503,0,60.4389915,0c-0.7777023,0-1.5556107,0.2003339-2.2492218,0.6007874L39.319603,11.495471
			c-1.38731,0.8010092-2.2491684,2.2937393-2.2491684,3.8956652v12.7796803l3.7787209-2.1816845
			c0.0373001-0.0277557,0.0760078-0.0539188,0.1167984-0.0774689l17.8266869-10.292243v7.8224955
			c-0.2061844,0.0808582-0.4081078,0.1758137-0.6028709,0.2882576L40.3630943,34.0224266v-3.9506168l-3.2926598,1.9010334v5.2077026
			c0,1.6019249,0.8618584,3.0946541,2.2491684,3.8956757l18.8701668,10.8947258c1.387413,0.8010063,3.1110916,0.8010063,4.4984055,0
			L81.558342,41.0762215c1.3873138-0.8010216,2.2491684-2.2937508,2.2491684-3.8956757V24.3107986l-3.2927017-1.9009819v0.0478649
			l-17.8266335-10.292202c-0.6937523-0.4005556-1.4713249-0.6007872-2.2491837-0.6007872
			c-0.7777023,0-1.5556107,0.2002831-2.2492218,0.6007872L40.3630943,22.4577332v-7.066597
			c0-0.4293318,0.2309914-0.8294487,0.6028595-1.0441656L59.836132,3.452246c0.3718719-0.2145641,0.8338585-0.2145641,1.2056389,0
			l18.8701706,10.8947248c0.3718719,0.2146664,0.6028671,0.6148338,0.6028671,1.0441656V18.60779L83.8075104,20.5088234z
			 M62.0853043,15.6194201L79.9119415,25.911623c0.3718719,0.2147064,0.6028671,0.6148338,0.6028671,1.0442066v7.0665436
			L62.6881752,23.7301731c-0.1947632-0.1124439-0.3966866-0.2073994-0.6028709-0.2883072V15.6194201z M61.0417709,26.5816822
			l18.8702621,10.8947773c0.1623001,0.093689,0.2977448,0.2226562,0.3988113,0.3741035
			c-0.1010666,0.1513481-0.2365112,0.280407-0.3988113,0.3740959L61.0417709,49.1193962
			c-0.1859398,0.1073456-0.39431,0.1610336-0.6027794,0.1610336c-0.2084579,0-0.4169273-0.053688-0.6028595-0.1610336
			L40.9659538,38.224659c-0.1622887-0.093689-0.2977486-0.2227478-0.3988991-0.3740959
			c0.1011505-0.1513557,0.2366104-0.2804146,0.3988991-0.3741035L59.836132,26.5816822
			C60.208004,26.3670158,60.6699905,26.3670158,61.0417709,26.5816822z"/>
	</g>
</g>
</svg>
